<svg width="143" height="54" viewBox="0 0 143 54" fill="none" xmlns="http://www.w3.org/2000/svg">
<g clip-path="url(#clip0_115_11)">
<path d="M50.0986 2.41071H0.486389V51.5893H50.0986V2.41071Z" stroke="#F21D17"/>
<path d="M10.9595 24.1341H7.17725V21.6H17.5083V24.1341H13.7261V33.75H10.9595V24.1341ZM23.739 33.75H18.696V21.6H23.739C25.5484 21.6 27.0718 22.1844 28.3091 23.3531C29.5465 24.5102 30.1652 25.9509 30.1652 27.675C30.1652 29.3992 29.5465 30.8398 28.3091 31.9969C27.0718 33.1656 25.5484 33.75 23.739 33.75ZM23.739 24.1341H21.4802V31.2159H23.739C24.7312 31.2159 25.5717 30.8745 26.2605 30.1918C26.9375 29.5206 27.276 28.6817 27.276 27.675C27.276 26.6799 26.9317 25.8409 26.2429 25.1582C25.5542 24.4755 24.7196 24.1341 23.739 24.1341ZM33.1455 33.75H30.2388L35.4043 21.6H37.6981L42.8461 33.75H39.9569L39.1164 31.7019H33.986L33.1455 33.75ZM38.1008 29.2371L36.56 25.5054L35.0191 29.2371H38.1008Z" fill="#F21D17"/>
<path d="M64.2323 4.41835H60.6602V2.025H70.4173V4.41835H66.8452V13.5H64.2323V4.41835ZM72.2175 13.5H69.4722L74.3508 2.025H76.5172L81.3792 13.5H78.6505L77.8567 11.5656H73.0112L72.2175 13.5ZM76.8975 9.23785L75.4422 5.71339L73.987 9.23785H76.8975ZM90.1902 4.50032L87.5938 5.10685C87.5167 4.84457 87.3348 4.63146 87.0481 4.46753C86.7725 4.29268 86.4418 4.20525 86.0559 4.20525C85.659 4.20525 85.3282 4.29268 85.0636 4.46753C84.799 4.64239 84.6667 4.86643 84.6667 5.13964C84.6667 5.48936 84.9865 5.79535 85.6259 6.05764C85.8574 6.14507 86.4362 6.32539 87.3623 6.5986C88.068 6.80624 88.6468 7.04668 89.0988 7.31989C90.1021 7.84446 90.6313 8.75154 90.6863 10.0411C90.6863 11.1558 90.284 12.0465 89.4791 12.7131C88.6743 13.3797 87.6325 13.7131 86.3535 13.7131C85.1849 13.7131 84.1761 13.4399 83.3272 12.8935C82.5003 12.358 81.9601 11.6531 81.7065 10.7788L84.336 10.1559C84.4242 10.4946 84.6557 10.7733 85.0305 10.9919C85.4055 11.2105 85.8464 11.3197 86.3535 11.3197C86.8277 11.3197 87.23 11.2214 87.5608 11.0247C87.8915 10.8171 88.0569 10.5657 88.0569 10.2706C88.0569 10.063 87.9577 9.87717 87.7592 9.71325C87.5057 9.49467 87.0261 9.27064 86.3205 9.04114L86.1551 8.99196C85.5928 8.82803 85.3007 8.7406 85.2786 8.72968L84.4683 8.4346C84.0714 8.25975 83.8068 8.13406 83.6745 8.05757C83.0461 7.60949 82.6547 7.25979 82.5003 7.00842C82.1917 6.49478 82.0373 5.93742 82.0373 5.33635C82.0373 4.28721 82.4011 3.44025 83.1287 2.79546C83.8675 2.13975 84.8266 1.81189 86.0063 1.81189C87.0427 1.81189 87.9467 2.06871 88.7184 2.58235C89.4791 3.08506 89.9698 3.72439 90.1902 4.50032ZM99.8967 4.50032L97.3003 5.10685C97.2227 4.84457 97.0408 4.63146 96.7542 4.46753C96.4785 4.29268 96.1478 4.20525 95.762 4.20525C95.3651 4.20525 95.0343 4.29268 94.7697 4.46753C94.5051 4.64239 94.3728 4.86643 94.3728 5.13964C94.3728 5.48936 94.6925 5.79535 95.332 6.05764C95.5635 6.14507 96.1423 6.32539 97.0684 6.5986C97.7741 6.80624 98.3529 7.04668 98.8052 7.31989C99.8082 7.84446 100.337 8.75154 100.393 10.0411C100.393 11.1558 99.9901 12.0465 99.1856 12.7131C98.3801 13.3797 97.3383 13.7131 96.0596 13.7131C94.8909 13.7131 93.8821 13.4399 93.0333 12.8935C92.2064 12.358 91.6661 11.6531 91.4126 10.7788L94.0421 10.1559C94.1302 10.4946 94.3617 10.7733 94.7366 10.9919C95.1115 11.2105 95.5524 11.3197 96.0596 11.3197C96.5337 11.3197 96.9361 11.2214 97.2669 11.0247C97.598 10.8171 97.7634 10.5657 97.7634 10.2706C97.7634 10.063 97.6642 9.87717 97.4657 9.71325C97.2117 9.49467 96.7321 9.27064 96.0266 9.04114L95.8612 8.99196C95.2989 8.82803 95.0067 8.7406 94.9847 8.72968L94.1744 8.4346C93.7775 8.25975 93.5129 8.13406 93.3806 8.05757C92.7522 7.60949 92.3607 7.25979 92.2064 7.00842C91.8977 6.49478 91.7434 5.93742 91.7434 5.33635C91.7434 4.28721 92.1072 3.44025 92.8348 2.79546C93.5735 2.13975 94.5327 1.81189 95.7124 1.81189C96.7487 1.81189 97.6525 2.06871 98.4249 2.58235C99.1856 3.08506 99.6759 3.72439 99.8967 4.50032ZM104.304 13.5H101.675V2.025H104.304V13.5ZM114.044 4.50032L111.448 5.10685C111.37 4.84457 111.188 4.63146 110.902 4.46753C110.626 4.29268 110.295 4.20525 109.91 4.20525C109.513 4.20525 109.182 4.29268 108.917 4.46753C108.653 4.64239 108.52 4.86643 108.52 5.13964C108.52 5.48936 108.84 5.79535 109.48 6.05764C109.711 6.14507 110.29 6.32539 111.216 6.5986C111.921 6.80624 112.5 7.04668 112.953 7.31989C113.955 7.84446 114.485 8.75154 114.54 10.0411C114.54 11.1558 114.137 12.0465 113.333 12.7131C112.527 13.3797 111.486 13.7131 110.207 13.7131C109.038 13.7131 108.029 13.4399 107.181 12.8935C106.354 12.358 105.813 11.6531 105.56 10.7788L108.19 10.1559C108.277 10.4946 108.509 10.7733 108.884 10.9919C109.259 11.2105 109.7 11.3197 110.207 11.3197C110.681 11.3197 111.084 11.2214 111.415 11.0247C111.745 10.8171 111.911 10.5657 111.911 10.2706C111.911 10.063 111.811 9.87717 111.613 9.71325C111.359 9.49467 110.879 9.27064 110.174 9.04114L110.009 8.99196C109.447 8.82803 109.154 8.7406 109.132 8.72968L108.322 8.4346C107.925 8.25975 107.661 8.13406 107.528 8.05757C106.9 7.60949 106.508 7.25979 106.354 7.00842C106.045 6.49478 105.891 5.93742 105.891 5.33635C105.891 4.28721 106.255 3.44025 106.983 2.79546C107.721 2.13975 108.68 1.81189 109.86 1.81189C110.896 1.81189 111.8 2.06871 112.572 2.58235C113.333 3.08506 113.823 3.72439 114.044 4.50032ZM65.853 32.7857H61.0902V21.3107H65.853C67.5619 21.3107 69.0006 21.8626 70.1692 22.9664C71.3379 24.0592 71.9222 25.4198 71.9222 27.0482C71.9222 28.6766 71.3379 30.0372 70.1692 31.13C69.0006 32.2338 67.5619 32.7857 65.853 32.7857ZM65.853 23.7041H63.7197V30.3924H65.853C66.7901 30.3924 67.5839 30.07 68.2344 29.4252C68.8738 28.7913 69.1935 27.999 69.1935 27.0482C69.1935 26.1083 68.8683 25.3161 68.2178 24.6712C67.5673 24.0264 66.7791 23.7041 65.853 23.7041ZM75.8805 32.7857H73.251V21.3107H75.8805V32.7857ZM77.2023 27.0482C77.2023 25.3542 77.7921 23.9391 78.9718 22.8025C80.1514 21.6659 81.6178 21.0976 83.3708 21.0976C84.5834 21.0976 85.686 21.3927 86.6783 21.9828C87.6705 22.573 88.4147 23.3762 88.9108 24.3926L86.364 25.327C86.0774 24.7805 85.6695 24.3543 85.1403 24.0483C84.6111 23.7423 84.0212 23.5893 83.3708 23.5893C82.3674 23.5893 81.5461 23.9227 80.9067 24.5893C80.2562 25.2559 79.931 26.0755 79.931 27.0482C79.931 28.0099 80.2452 28.8295 80.8736 29.5071C81.502 30.1737 82.2847 30.5071 83.2219 30.5071C83.8834 30.5071 84.4898 30.3268 85.041 29.9661C85.6033 29.6055 86.0057 29.1301 86.2483 28.54H82.9408V26.3269H89.225C89.2581 26.5236 89.2746 26.7312 89.2746 26.9499C89.2746 28.6547 88.7013 30.0918 87.5547 31.2612C86.4191 32.4196 84.9804 32.9988 83.2385 32.9988C81.5517 32.9988 80.1183 32.4306 78.9387 31.294C77.7811 30.1683 77.2023 28.7531 77.2023 27.0482ZM93.2254 32.7857H90.596V21.3107H93.2254V32.7857ZM97.921 23.7041H94.3488V21.3107H104.106V23.7041H100.534V32.7857H97.921V23.7041ZM105.906 32.7857H103.16L108.039 21.3107H110.205L115.067 32.7857H112.339L111.545 30.8514H106.699L105.906 32.7857ZM110.586 28.5236L109.13 24.9991L107.675 28.5236H110.586ZM115.967 21.3107H118.597V30.3924H124.186V32.7857H115.967V21.3107ZM63.1574 52.0714H60.4122L65.2907 40.5964H67.4571L72.3191 52.0714H69.5904L68.7966 50.1371H63.9512L63.1574 52.0714ZM67.8375 47.8093L66.3822 44.2848L64.9269 47.8093H67.8375ZM72.4058 46.3339C72.4058 44.64 72.9957 43.2248 74.1753 42.0882C75.355 40.9516 76.8213 40.3833 78.5742 40.3833C79.787 40.3833 80.8895 40.6784 81.8817 41.2685C82.874 41.8587 83.6182 42.6619 84.1143 43.6783L81.5675 44.6127C81.2809 44.0662 80.8729 43.64 80.3437 43.334C79.8145 43.0281 79.2247 42.875 78.5742 42.875C77.571 42.875 76.7497 43.2084 76.1102 43.875C75.4598 44.5416 75.1345 45.3612 75.1345 46.3339C75.1345 47.2956 75.4487 48.1152 76.0771 48.7928C76.7055 49.4595 77.4883 49.7928 78.4254 49.7928C79.0869 49.7928 79.6933 49.6125 80.2445 49.2518C80.8068 48.8912 81.2092 48.4158 81.4518 47.8257H78.1443V45.6126H84.4285C84.4616 45.8093 84.4781 46.017 84.4781 46.2356C84.4781 47.9404 83.9048 49.3775 82.7582 50.5469C81.6227 51.7053 80.1839 52.2845 78.4419 52.2845C76.7551 52.2845 75.3219 51.7163 74.1422 50.5797C72.9846 49.4541 72.4058 48.0388 72.4058 46.3339ZM85.7994 40.5964H94.4485V42.9898H88.4289V45.0881H93.4893V47.4814H88.4289V49.6781H94.5312V52.0714H85.7994V40.5964ZM98.278 52.0714H95.7478V40.5964H98.0795L103.586 47.629V40.5964H106.117V52.0714H103.785L98.278 45.0717V52.0714ZM113.504 40.3833C114.739 40.3833 115.842 40.6839 116.812 41.2849C117.804 41.886 118.537 42.6838 119.011 43.6783L116.464 44.6127C116.167 44.0772 115.759 43.6564 115.241 43.3504C114.722 43.0335 114.143 42.875 113.504 42.875C112.556 42.875 111.762 43.2084 111.123 43.875C110.484 44.5198 110.164 45.3395 110.164 46.3339C110.164 47.3175 110.484 48.1426 111.123 48.8092C111.762 49.465 112.556 49.7928 113.504 49.7928C114.143 49.7928 114.722 49.6398 115.241 49.3338C115.759 49.0169 116.167 48.5906 116.464 48.0552L119.011 48.9896C118.537 49.984 117.804 50.7873 116.812 51.3993C115.842 51.9895 114.739 52.2845 113.504 52.2845C111.784 52.2845 110.34 51.7163 109.171 50.5797C108.014 49.4541 107.435 48.0388 107.435 46.3339C107.435 44.6291 108.014 43.2138 109.171 42.0882C110.34 40.9516 111.784 40.3833 113.504 40.3833ZM123.255 47.3503L118.923 40.5964H121.932L124.562 44.9241L127.274 40.5964H130.267L125.868 47.3011V52.0714H123.255V47.3503Z" fill="white"/>
</g>
<defs>
<clipPath id="clip0_115_11">
<rect width="143" height="54" fill="white"/>
</clipPath>
</defs>
</svg>
