<svg width="126" height="48" viewBox="0 0 126 48" fill="none" xmlns="http://www.w3.org/2000/svg">
<g clip-path="url(#clip0_144_107)">
<path d="M44.1429 2.14285H0.428589V45.8571H44.1429V2.14285Z" stroke="#F21D17"/>
<path d="M9.65655 21.4526H6.32397V19.2H15.4268V21.4526H12.0943V30H9.65655V21.4526ZM20.9168 30H16.4734V19.2H20.9168C22.5111 19.2 23.8534 19.7194 24.9437 20.7583C26.034 21.7869 26.5791 23.0674 26.5791 24.6C26.5791 26.1326 26.034 27.4132 24.9437 28.4417C23.8534 29.4806 22.5111 30 20.9168 30ZM20.9168 21.4526H18.9265V27.7474H20.9168C21.7911 27.7474 22.5317 27.444 23.1385 26.8372C23.7351 26.2406 24.0334 25.4949 24.0334 24.6C24.0334 23.7154 23.73 22.9697 23.1231 22.3629C22.5163 21.756 21.7808 21.4526 20.9168 21.4526ZM29.2051 30H26.6439L31.1953 19.2H33.2165L37.7525 30H35.2068L34.4662 28.1794H29.9456L29.2051 30ZM33.5713 25.9886L32.2136 22.6714L30.8559 25.9886H33.5713Z" fill="#F21D17"/>
<path d="M56.5963 3.92742H53.4489V1.79999H62.046V3.92742H58.8986V12H56.5963V3.92742ZM63.6321 12H61.2133L65.5119 1.79999H67.4207L71.7047 12H69.3004L68.601 10.2806H64.3316L63.6321 12ZM67.7559 8.21142L66.4736 5.07856L65.1913 8.21142H67.7559ZM79.4683 4.00028L77.1806 4.53942C77.1126 4.30628 76.9523 4.11685 76.6997 3.97114C76.4569 3.81571 76.1655 3.73799 75.8254 3.73799C75.4757 3.73799 75.1843 3.81571 74.9511 3.97114C74.718 4.12656 74.6014 4.32571 74.6014 4.56856C74.6014 4.87942 74.8832 5.15142 75.4466 5.38456C75.6506 5.46228 76.1606 5.62257 76.9766 5.86542C77.5983 6.04999 78.1083 6.26371 78.5066 6.50656C79.3906 6.97285 79.8569 7.77914 79.9054 8.92542C79.9054 9.91628 79.5509 10.708 78.8417 11.3006C78.1326 11.8931 77.2146 12.1894 76.0877 12.1894C75.058 12.1894 74.1692 11.9466 73.4211 11.4608C72.6926 10.9849 72.2166 10.3583 71.9931 9.58114L74.31 9.02742C74.3877 9.32853 74.5917 9.57625 74.922 9.77056C75.2523 9.96488 75.6409 10.062 76.0877 10.062C76.5055 10.062 76.86 9.97456 77.1514 9.79971C77.4429 9.61516 77.5886 9.39171 77.5886 9.12942C77.5886 8.94488 77.5011 8.77971 77.3263 8.63399C77.1029 8.4397 76.6803 8.24056 76.0586 8.03656L75.9129 7.99285C75.4174 7.84714 75.16 7.76942 75.1406 7.75971L74.4266 7.49742C74.0769 7.342 73.8437 7.23028 73.7271 7.16228C73.1734 6.76399 72.8286 6.45314 72.6926 6.22971C72.4206 5.77313 72.2846 5.2777 72.2846 4.74342C72.2846 3.81085 72.6051 3.058 73.2463 2.48485C73.8972 1.90199 74.7423 1.61057 75.7817 1.61057C76.6949 1.61057 77.4915 1.83885 78.1714 2.29542C78.8417 2.74228 79.2741 3.31056 79.4683 4.00028ZM88.0209 4.00028L85.7331 4.53942C85.6647 4.30628 85.5045 4.11685 85.2519 3.97114C85.009 3.81571 84.7176 3.73799 84.3777 3.73799C84.0279 3.73799 83.7365 3.81571 83.5034 3.97114C83.2702 4.12656 83.1537 4.32571 83.1537 4.56856C83.1537 4.87942 83.4353 5.15142 83.9988 5.38456C84.2028 5.46228 84.7128 5.62257 85.5288 5.86542C86.1506 6.04999 86.6606 6.26371 87.0591 6.50656C87.9429 6.97285 88.4091 7.77914 88.458 8.92542C88.458 9.91628 88.1031 10.708 87.3943 11.3006C86.6846 11.8931 85.7666 12.1894 84.6399 12.1894C83.6102 12.1894 82.7213 11.9466 81.9734 11.4608C81.2448 10.9849 80.7687 10.3583 80.5454 9.58114L82.8622 9.02742C82.9399 9.32853 83.1439 9.57625 83.4742 9.77056C83.8045 9.96488 84.193 10.062 84.6399 10.062C85.0576 10.062 85.4122 9.97456 85.7037 9.79971C85.9954 9.61516 86.1411 9.39171 86.1411 9.12942C86.1411 8.94488 86.0537 8.77971 85.8789 8.63399C85.6551 8.4397 85.2325 8.24056 84.6108 8.03656L84.4651 7.99285C83.9697 7.84714 83.7122 7.76942 83.6928 7.75971L82.9788 7.49742C82.6291 7.342 82.3959 7.23028 82.2794 7.16228C81.7257 6.76399 81.3807 6.45314 81.2448 6.22971C80.9727 5.77313 80.8368 5.2777 80.8368 4.74342C80.8368 3.81085 81.1574 3.058 81.7985 2.48485C82.4493 1.90199 83.2945 1.61057 84.3339 1.61057C85.2471 1.61057 86.0434 1.83885 86.724 2.29542C87.3943 2.74228 87.8263 3.31056 88.0209 4.00028ZM91.9046 12H89.5877V1.79999H91.9046V12ZM100.486 4.00028L98.1986 4.53942C98.13 4.30628 97.9697 4.11685 97.7177 3.97114C97.4743 3.81571 97.1829 3.73799 96.8434 3.73799C96.4937 3.73799 96.2023 3.81571 95.9691 3.97114C95.736 4.12656 95.6194 4.32571 95.6194 4.56856C95.6194 4.87942 95.9006 5.15142 96.4646 5.38456C96.6686 5.46228 97.1786 5.62257 97.9946 5.86542C98.616 6.04999 99.126 6.26371 99.5246 6.50656C100.408 6.97285 100.875 7.77914 100.923 8.92542C100.923 9.91628 100.569 10.708 99.8597 11.3006C99.15 11.8931 98.232 12.1894 97.1057 12.1894C96.0754 12.1894 95.1866 11.9466 94.4391 11.4608C93.7106 10.9849 93.234 10.3583 93.0111 9.58114L95.328 9.02742C95.4051 9.32853 95.6091 9.57625 95.94 9.77056C96.27 9.96488 96.6583 10.062 97.1057 10.062C97.5231 10.062 97.878 9.97456 98.1694 9.79971C98.4609 9.61516 98.6066 9.39171 98.6066 9.12942C98.6066 8.94488 98.5191 8.77971 98.3443 8.63399C98.1206 8.4397 97.698 8.24056 97.0766 8.03656L96.9309 7.99285C96.4354 7.84714 96.1774 7.76942 96.1586 7.75971L95.4446 7.49742C95.0949 7.342 94.8617 7.23028 94.7451 7.16228C94.1914 6.76399 93.846 6.45314 93.7106 6.22971C93.438 5.77313 93.3026 5.2777 93.3026 4.74342C93.3026 3.81085 93.6231 3.058 94.2643 2.48485C94.9149 1.90199 95.76 1.61057 96.7997 1.61057C97.7126 1.61057 98.5089 1.83885 99.1894 2.29542C99.8597 2.74228 100.292 3.31056 100.486 4.00028ZM58.0243 29.1428H53.8277V18.9428H58.0243C59.53 18.9428 60.7977 19.4334 61.8274 20.4146C62.8571 21.386 63.372 22.5954 63.372 24.0428C63.372 25.4903 62.8571 26.6997 61.8274 27.6711C60.7977 28.6523 59.53 29.1428 58.0243 29.1428ZM58.0243 21.0703H56.1446V27.0154H58.0243C58.85 27.0154 59.5494 26.7289 60.1226 26.1557C60.686 25.5923 60.9677 24.888 60.9677 24.0428C60.9677 23.2074 60.6812 22.5032 60.108 21.93C59.5348 21.3568 58.8403 21.0703 58.0243 21.0703ZM66.8597 29.1428H64.5429V18.9428H66.8597V29.1428ZM68.0244 24.0428C68.0244 22.5371 68.5441 21.2792 69.5835 20.2688C70.6229 19.2585 71.915 18.7534 73.4595 18.7534C74.5281 18.7534 75.4995 19.0157 76.3738 19.5403C77.2481 20.0648 77.9038 20.7788 78.341 21.6823L76.097 22.5128C75.8444 22.0271 75.485 21.6482 75.0187 21.3763C74.5524 21.1043 74.0326 20.9683 73.4595 20.9683C72.5755 20.9683 71.8518 21.2646 71.2884 21.8571C70.7152 22.4497 70.4287 23.1782 70.4287 24.0428C70.4287 24.8977 70.7055 25.6262 71.2593 26.2286C71.813 26.8211 72.5026 27.1174 73.3284 27.1174C73.9113 27.1174 74.4455 26.9571 74.9313 26.6366C75.4267 26.316 75.7812 25.8934 75.995 25.3688H73.0807V23.4017H78.6178C78.647 23.5766 78.6615 23.7611 78.6615 23.9554C78.6615 25.4708 78.1563 26.7482 77.1461 27.7877C76.1455 28.8174 74.8778 29.3323 73.343 29.3323C71.8567 29.3323 70.5938 28.8272 69.5544 27.8168C68.5344 26.8163 68.0244 25.5583 68.0244 24.0428ZM82.1427 29.1428H79.8258V18.9428H82.1427V29.1428ZM86.28 21.0703H83.1325V18.9428H91.7297V21.0703H88.5823V29.1428H86.28V21.0703ZM93.3154 29.1428H90.8966L95.1951 18.9428H97.104L101.388 29.1428H98.9837L98.2843 27.4234H94.0149L93.3154 29.1428ZM97.4391 25.3543L96.1569 22.2214L94.8746 25.3543H97.4391ZM102.181 18.9428H104.498V27.0154H109.423V29.1428H102.181V18.9428ZM55.6491 46.2857H53.2303L57.5289 36.0857H59.4377L63.7217 46.2857H61.3174L60.618 44.5663H56.3486L55.6491 46.2857ZM59.7729 42.4971L58.4906 39.3643L57.2083 42.4971H59.7729ZM63.7981 41.1857C63.7981 39.68 64.3179 38.422 65.3572 37.4117C66.3967 36.4014 67.6887 35.8963 69.2332 35.8963C70.3018 35.8963 71.2732 36.1586 72.1475 36.6831C73.0218 37.2077 73.6775 37.9217 74.1147 38.8251L71.8707 39.6557C71.6181 39.17 71.2587 38.7911 70.7924 38.5191C70.3261 38.2472 69.8064 38.1111 69.2332 38.1111C68.3493 38.1111 67.6256 38.4074 67.0621 39C66.489 39.5925 66.2024 40.3211 66.2024 41.1857C66.2024 42.0405 66.4792 42.7691 67.0329 43.3714C67.5867 43.964 68.2764 44.2603 69.1021 44.2603C69.6849 44.2603 70.2193 44.1 70.7049 43.7794C71.2004 43.4588 71.555 43.0363 71.7687 42.5117H68.8544V40.5446H74.3915C74.4207 40.7194 74.4352 40.904 74.4352 41.0983C74.4352 42.6137 73.9301 43.8911 72.9198 44.9306C71.9193 45.9602 70.6515 46.4751 69.1167 46.4751C67.6304 46.4751 66.3675 45.97 65.3281 44.9597C64.3081 43.9592 63.7981 42.7011 63.7981 41.1857ZM75.5995 36.0857H83.2203V38.2131H77.9163V40.0783H82.3752V42.2057H77.9163V44.1583H83.2932V46.2857H75.5995V36.0857ZM86.5946 46.2857H84.3651V36.0857H86.4197L91.272 42.3368V36.0857H93.5014V46.2857H91.4469L86.5946 40.0637V46.2857ZM100.011 35.8963C101.098 35.8963 102.07 36.1634 102.925 36.6977C103.799 37.232 104.445 37.9412 104.863 38.8251L102.619 39.6557C102.357 39.1797 101.997 38.8057 101.541 38.5337C101.084 38.252 100.574 38.1111 100.011 38.1111C99.1749 38.1111 98.4754 38.4074 97.9123 39C97.3491 39.5732 97.0671 40.3017 97.0671 41.1857C97.0671 42.06 97.3491 42.7934 97.9123 43.386C98.4754 43.9688 99.1749 44.2603 100.011 44.2603C100.574 44.2603 101.084 44.1242 101.541 43.8523C101.997 43.5705 102.357 43.1917 102.619 42.7157L104.863 43.5463C104.445 44.4302 103.799 45.1442 102.925 45.6883C102.07 46.2128 101.098 46.4751 100.011 46.4751C98.4951 46.4751 97.2223 45.97 96.1929 44.9597C95.1729 43.9592 94.6629 42.7011 94.6629 41.1857C94.6629 39.6703 95.1729 38.4122 96.1929 37.4117C97.2223 36.4014 98.4951 35.8963 100.011 35.8963ZM108.603 42.0891L104.785 36.0857H107.437L109.754 39.9326L112.143 36.0857H114.781L110.905 42.0454V46.2857H108.603V42.0891Z" fill="white"/>
</g>
<defs>
<clipPath id="clip0_144_107">
<rect width="126" height="48" fill="white"/>
</clipPath>
</defs>
</svg>
